<svg width="30" height="30" viewBox="0 0 30 30" fill="none" xmlns="http://www.w3.org/2000/svg">
<path d="M28.1633 0H1.83673C0.823959 0 0 0.823959 0 1.83673V28.1633C0 29.176 0.823959 30 1.83673 30H28.1633C29.176 30 30 29.176 30 28.1633V1.83673C30 0.823959 29.176 0 28.1633 0ZM28.7755 28.1633C28.7755 28.5009 28.5009 28.7755 28.1633 28.7755H1.83673C1.49914 28.7755 1.22449 28.5009 1.22449 28.1633V1.83673C1.22449 1.49914 1.49914 1.22449 1.83673 1.22449H28.1633C28.5009 1.22449 28.7755 1.49914 28.7755 1.83673V28.1633Z" fill="white"/>
<path d="M23.2422 7.38281H6.75781C5.78977 7.38281 5 8.17172 5 9.14062V20.8594C5 21.825 5.78625 22.6172 6.75781 22.6172H23.2422C24.2078 22.6172 25 21.8309 25 20.8594V9.14062C25 8.175 24.2138 7.38281 23.2422 7.38281ZM22.9995 8.55469L15.0373 16.5169L7.00621 8.55469H22.9995ZM6.17188 20.6167V9.3777L11.8156 14.973L6.17188 20.6167ZM7.00051 21.4453L12.6478 15.798L14.6266 17.7598C14.8556 17.987 15.2253 17.9862 15.4534 17.758L17.3828 15.8286L22.9995 21.4453H7.00051ZM23.8281 20.6167L18.2114 15L23.8281 9.38328V20.6167Z" fill="white"/>
</svg>
