<svg width="30" height="30" viewBox="0 0 30 30" fill="none" xmlns="http://www.w3.org/2000/svg">
<path d="M28.1633 0H1.83673C0.823959 0 0 0.823959 0 1.83673V28.1633C0 29.176 0.823959 30 1.83673 30H28.1633C29.176 30 30 29.176 30 28.1633V1.83673C30 0.823959 29.176 0 28.1633 0ZM28.7755 28.1633C28.7755 28.5009 28.5009 28.7755 28.1633 28.7755H1.83673C1.49914 28.7755 1.22449 28.5009 1.22449 28.1633V1.83673C1.22449 1.49914 1.49914 1.22449 1.83673 1.22449H28.1633C28.5009 1.22449 28.7755 1.49914 28.7755 1.83673V28.1633Z" fill="white"/>
<path d="M19.3744 25C18.7288 25 18.0887 24.8859 17.4627 24.6585C14.7051 23.6567 12.1455 22.0251 10.0604 19.9401C7.97531 17.8551 6.34374 15.2954 5.34202 12.5377C5.02012 11.6515 4.92512 10.7367 5.05977 9.81863C5.18589 8.95867 5.519 8.12382 6.02312 7.40432C6.52947 6.68165 7.20452 6.08058 7.97527 5.66611C8.79719 5.22413 9.6943 5 10.6418 5C10.9364 5 11.1911 5.20589 11.2529 5.494L12.2338 10.0719C12.2783 10.2792 12.2145 10.4949 12.0647 10.6448L10.3885 12.321C11.9697 15.4648 14.5355 18.0307 17.6794 19.6119L19.3556 17.9357C19.5055 17.7858 19.7212 17.7222 19.9285 17.7665L24.5064 18.7475C24.7945 18.8093 25.0004 19.064 25.0004 19.3586C25.0004 20.3061 24.7763 21.2032 24.3342 22.0252C23.9198 22.7959 23.3187 23.471 22.596 23.9773C21.8766 24.4814 21.0417 24.8145 20.1817 24.9407C19.9122 24.9802 19.6428 25 19.3744 25ZM10.1424 6.27729C8.89266 6.41525 7.7834 7.07031 7.04679 8.12163C6.21847 9.30381 6.02531 10.7578 6.51685 12.111C8.44271 17.4126 12.5879 21.5578 17.8895 23.4836C19.2426 23.9752 20.6966 23.782 21.8788 22.9537C22.9302 22.2171 23.5852 21.1078 23.7232 19.8581L19.9991 19.06L18.2485 20.8106C18.0622 20.9969 17.7792 21.0464 17.5409 20.9343C13.8226 19.1875 10.8129 16.1778 9.06612 12.4596C8.95414 12.2212 9.00359 11.9382 9.18987 11.7519L10.9404 10.0014L10.1424 6.27729Z" fill="white"/>
</svg>
